<mxfile host="app.diagrams.net" modified="2021-08-28T17:23:27.822Z" agent="5.0 (Windows NT 10.0; Win64; x64) AppleWebKit/537.36 (KHTML, like Gecko) Chrome/92.0.4515.159 Safari/537.36" etag="8zzkGeW_d1WQtFqzx9s7" version="15.0.3" type="github" pages="2">
  <diagram id="BbaB5wHueCCZ43q4Wz9f" name="Page-1">
    <mxGraphModel dx="1718" dy="463" grid="1" gridSize="10" guides="1" tooltips="1" connect="1" arrows="1" fold="1" page="1" pageScale="1" pageWidth="850" pageHeight="1100" math="0" shadow="0">
      <root>
        <mxCell id="0" />
        <mxCell id="1" parent="0" />
        <mxCell id="eJtVJgcZrvZpxiKt2Ojm-6" value="" style="rounded=0;whiteSpace=wrap;html=1;fillColor=#ffe6cc;strokeColor=#d79b00;" vertex="1" parent="1">
          <mxGeometry x="220" y="30" width="280" height="430" as="geometry" />
        </mxCell>
        <mxCell id="vC_fx5O7n33dnGyhdRx1-3" value="" style="edgeStyle=orthogonalEdgeStyle;rounded=0;orthogonalLoop=1;jettySize=auto;html=1;" edge="1" parent="1" source="vC_fx5O7n33dnGyhdRx1-1" target="vC_fx5O7n33dnGyhdRx1-2">
          <mxGeometry relative="1" as="geometry">
            <Array as="points">
              <mxPoint x="220" y="100" />
              <mxPoint x="220" y="100" />
            </Array>
          </mxGeometry>
        </mxCell>
        <mxCell id="vC_fx5O7n33dnGyhdRx1-10" value="1" style="edgeLabel;html=1;align=center;verticalAlign=middle;resizable=0;points=[];" vertex="1" connectable="0" parent="vC_fx5O7n33dnGyhdRx1-3">
          <mxGeometry x="0.2762" y="2" relative="1" as="geometry">
            <mxPoint as="offset" />
          </mxGeometry>
        </mxCell>
        <mxCell id="vC_fx5O7n33dnGyhdRx1-19" style="edgeStyle=orthogonalEdgeStyle;rounded=0;orthogonalLoop=1;jettySize=auto;html=1;exitX=0.5;exitY=0;exitDx=0;exitDy=0;exitPerimeter=0;" edge="1" parent="1" source="vC_fx5O7n33dnGyhdRx1-1" target="vC_fx5O7n33dnGyhdRx1-5">
          <mxGeometry relative="1" as="geometry">
            <Array as="points">
              <mxPoint x="125" y="60" />
              <mxPoint x="440" y="60" />
              <mxPoint x="440" y="240" />
            </Array>
          </mxGeometry>
        </mxCell>
        <mxCell id="vC_fx5O7n33dnGyhdRx1-20" value="2" style="edgeLabel;html=1;align=center;verticalAlign=middle;resizable=0;points=[];" vertex="1" connectable="0" parent="vC_fx5O7n33dnGyhdRx1-19">
          <mxGeometry x="0.5374" y="1" relative="1" as="geometry">
            <mxPoint as="offset" />
          </mxGeometry>
        </mxCell>
        <mxCell id="vC_fx5O7n33dnGyhdRx1-22" style="edgeStyle=orthogonalEdgeStyle;rounded=0;orthogonalLoop=1;jettySize=auto;html=1;exitX=0.5;exitY=0.5;exitDx=0;exitDy=0;exitPerimeter=0;entryX=0.5;entryY=0;entryDx=0;entryDy=0;entryPerimeter=0;" edge="1" parent="1" source="vC_fx5O7n33dnGyhdRx1-1" target="vC_fx5O7n33dnGyhdRx1-7">
          <mxGeometry relative="1" as="geometry" />
        </mxCell>
        <mxCell id="vC_fx5O7n33dnGyhdRx1-23" value="3.1" style="edgeLabel;html=1;align=center;verticalAlign=middle;resizable=0;points=[];" vertex="1" connectable="0" parent="vC_fx5O7n33dnGyhdRx1-22">
          <mxGeometry x="0.2545" relative="1" as="geometry">
            <mxPoint as="offset" />
          </mxGeometry>
        </mxCell>
        <mxCell id="vC_fx5O7n33dnGyhdRx1-1" value="Mahasiswa" style="shape=umlActor;verticalLabelPosition=bottom;verticalAlign=top;html=1;outlineConnect=0;" vertex="1" parent="1">
          <mxGeometry x="110" y="80" width="30" height="60" as="geometry" />
        </mxCell>
        <mxCell id="vC_fx5O7n33dnGyhdRx1-11" style="edgeStyle=orthogonalEdgeStyle;rounded=0;orthogonalLoop=1;jettySize=auto;html=1;exitX=0.5;exitY=0.5;exitDx=0;exitDy=0;exitPerimeter=0;" edge="1" parent="1" source="vC_fx5O7n33dnGyhdRx1-2">
          <mxGeometry relative="1" as="geometry">
            <mxPoint x="130" y="120" as="targetPoint" />
            <Array as="points">
              <mxPoint x="365" y="120" />
            </Array>
          </mxGeometry>
        </mxCell>
        <mxCell id="vC_fx5O7n33dnGyhdRx1-12" value="1.1" style="edgeLabel;html=1;align=center;verticalAlign=middle;resizable=0;points=[];" vertex="1" connectable="0" parent="vC_fx5O7n33dnGyhdRx1-11">
          <mxGeometry x="-0.3067" y="2" relative="1" as="geometry">
            <mxPoint as="offset" />
          </mxGeometry>
        </mxCell>
        <mxCell id="vC_fx5O7n33dnGyhdRx1-2" value="BAAK" style="shape=umlActor;verticalLabelPosition=bottom;verticalAlign=top;html=1;outlineConnect=0;" vertex="1" parent="1">
          <mxGeometry x="350" y="80" width="30" height="60" as="geometry" />
        </mxCell>
        <mxCell id="vC_fx5O7n33dnGyhdRx1-8" value="" style="edgeStyle=orthogonalEdgeStyle;rounded=0;orthogonalLoop=1;jettySize=auto;html=1;exitX=0;exitY=0.3333333333333333;exitDx=0;exitDy=0;exitPerimeter=0;" edge="1" parent="1" source="vC_fx5O7n33dnGyhdRx1-5" target="vC_fx5O7n33dnGyhdRx1-7">
          <mxGeometry relative="1" as="geometry">
            <Array as="points">
              <mxPoint x="350" y="250" />
            </Array>
          </mxGeometry>
        </mxCell>
        <mxCell id="vC_fx5O7n33dnGyhdRx1-13" value="3" style="edgeLabel;html=1;align=center;verticalAlign=middle;resizable=0;points=[];" vertex="1" connectable="0" parent="vC_fx5O7n33dnGyhdRx1-8">
          <mxGeometry x="-0.6" y="2" relative="1" as="geometry">
            <mxPoint as="offset" />
          </mxGeometry>
        </mxCell>
        <mxCell id="vC_fx5O7n33dnGyhdRx1-9" style="edgeStyle=orthogonalEdgeStyle;rounded=0;orthogonalLoop=1;jettySize=auto;html=1;exitX=1;exitY=1;exitDx=0;exitDy=0;exitPerimeter=0;" edge="1" parent="1" source="vC_fx5O7n33dnGyhdRx1-5" target="vC_fx5O7n33dnGyhdRx1-1">
          <mxGeometry relative="1" as="geometry">
            <Array as="points">
              <mxPoint x="470" y="280" />
              <mxPoint x="470" y="40" />
              <mxPoint x="125" y="40" />
            </Array>
          </mxGeometry>
        </mxCell>
        <mxCell id="vC_fx5O7n33dnGyhdRx1-21" value="2.1" style="edgeLabel;html=1;align=center;verticalAlign=middle;resizable=0;points=[];" vertex="1" connectable="0" parent="vC_fx5O7n33dnGyhdRx1-9">
          <mxGeometry x="-0.4917" y="-3" relative="1" as="geometry">
            <mxPoint as="offset" />
          </mxGeometry>
        </mxCell>
        <mxCell id="eJtVJgcZrvZpxiKt2Ojm-10" value="4" style="edgeStyle=orthogonalEdgeStyle;rounded=0;orthogonalLoop=1;jettySize=auto;html=1;exitX=0.5;exitY=0.5;exitDx=0;exitDy=0;exitPerimeter=0;" edge="1" parent="1" source="vC_fx5O7n33dnGyhdRx1-5">
          <mxGeometry relative="1" as="geometry">
            <mxPoint x="365" y="360" as="targetPoint" />
          </mxGeometry>
        </mxCell>
        <mxCell id="vC_fx5O7n33dnGyhdRx1-5" value="KAPRODI" style="shape=umlActor;verticalLabelPosition=bottom;verticalAlign=top;html=1;outlineConnect=0;" vertex="1" parent="1">
          <mxGeometry x="350" y="220" width="30" height="60" as="geometry" />
        </mxCell>
        <mxCell id="vC_fx5O7n33dnGyhdRx1-24" style="edgeStyle=orthogonalEdgeStyle;rounded=0;orthogonalLoop=1;jettySize=auto;html=1;exitX=0.5;exitY=0.5;exitDx=0;exitDy=0;exitPerimeter=0;" edge="1" parent="1" source="vC_fx5O7n33dnGyhdRx1-7" target="vC_fx5O7n33dnGyhdRx1-1">
          <mxGeometry relative="1" as="geometry">
            <Array as="points">
              <mxPoint x="35" y="240" />
              <mxPoint x="125" y="240" />
            </Array>
          </mxGeometry>
        </mxCell>
        <mxCell id="vC_fx5O7n33dnGyhdRx1-25" value="3.2" style="edgeLabel;html=1;align=center;verticalAlign=middle;resizable=0;points=[];" vertex="1" connectable="0" parent="vC_fx5O7n33dnGyhdRx1-24">
          <mxGeometry x="-0.12" y="1" relative="1" as="geometry">
            <mxPoint as="offset" />
          </mxGeometry>
        </mxCell>
        <mxCell id="eJtVJgcZrvZpxiKt2Ojm-13" style="edgeStyle=orthogonalEdgeStyle;rounded=0;orthogonalLoop=1;jettySize=auto;html=1;exitX=1;exitY=1;exitDx=0;exitDy=0;exitPerimeter=0;entryX=0;entryY=1;entryDx=0;entryDy=0;entryPerimeter=0;" edge="1" parent="1" source="vC_fx5O7n33dnGyhdRx1-7" target="vC_fx5O7n33dnGyhdRx1-5">
          <mxGeometry relative="1" as="geometry">
            <Array as="points">
              <mxPoint x="200" y="280" />
              <mxPoint x="200" y="280" />
            </Array>
          </mxGeometry>
        </mxCell>
        <mxCell id="eJtVJgcZrvZpxiKt2Ojm-14" value="3.3" style="edgeLabel;html=1;align=center;verticalAlign=middle;resizable=0;points=[];" vertex="1" connectable="0" parent="eJtVJgcZrvZpxiKt2Ojm-13">
          <mxGeometry x="0.1867" y="-2" relative="1" as="geometry">
            <mxPoint as="offset" />
          </mxGeometry>
        </mxCell>
        <mxCell id="vC_fx5O7n33dnGyhdRx1-7" value="PEMBIMBING" style="shape=umlActor;verticalLabelPosition=bottom;verticalAlign=top;html=1;outlineConnect=0;" vertex="1" parent="1">
          <mxGeometry x="20" y="220" width="30" height="60" as="geometry" />
        </mxCell>
        <mxCell id="eJtVJgcZrvZpxiKt2Ojm-11" style="edgeStyle=orthogonalEdgeStyle;rounded=0;orthogonalLoop=1;jettySize=auto;html=1;exitX=0;exitY=0.3333333333333333;exitDx=0;exitDy=0;exitPerimeter=0;" edge="1" parent="1" source="eJtVJgcZrvZpxiKt2Ojm-5" target="vC_fx5O7n33dnGyhdRx1-7">
          <mxGeometry relative="1" as="geometry" />
        </mxCell>
        <mxCell id="eJtVJgcZrvZpxiKt2Ojm-12" value="4.1" style="edgeLabel;html=1;align=center;verticalAlign=middle;resizable=0;points=[];" vertex="1" connectable="0" parent="eJtVJgcZrvZpxiKt2Ojm-11">
          <mxGeometry x="-0.4024" y="-2" relative="1" as="geometry">
            <mxPoint as="offset" />
          </mxGeometry>
        </mxCell>
        <mxCell id="eJtVJgcZrvZpxiKt2Ojm-5" value="DEKAN" style="shape=umlActor;verticalLabelPosition=bottom;verticalAlign=top;html=1;outlineConnect=0;" vertex="1" parent="1">
          <mxGeometry x="350" y="365" width="30" height="60" as="geometry" />
        </mxCell>
      </root>
    </mxGraphModel>
  </diagram>
  <diagram id="2f3g8VvEbGwE2dfsa54f" name="Page-2">
    <mxGraphModel dx="868" dy="520" grid="1" gridSize="10" guides="1" tooltips="1" connect="1" arrows="1" fold="1" page="1" pageScale="1" pageWidth="850" pageHeight="1100" math="0" shadow="0">
      <root>
        <mxCell id="cdRdtVFP8onHMkG8qm86-0" />
        <mxCell id="cdRdtVFP8onHMkG8qm86-1" parent="cdRdtVFP8onHMkG8qm86-0" />
        <mxCell id="cdRdtVFP8onHMkG8qm86-2" value="Actor" style="shape=umlActor;verticalLabelPosition=bottom;verticalAlign=top;html=1;outlineConnect=0;" vertex="1" parent="cdRdtVFP8onHMkG8qm86-1">
          <mxGeometry x="260" y="110" width="30" height="60" as="geometry" />
        </mxCell>
      </root>
    </mxGraphModel>
  </diagram>
</mxfile>
